<mxfile host="Electron" modified="2023-10-09T13:42:37.704Z" agent="Mozilla/5.0 (Windows NT 10.0; Win64; x64) AppleWebKit/537.36 (KHTML, like Gecko) draw.io/22.0.2 Chrome/114.0.5735.289 Electron/25.8.4 Safari/537.36" etag="8UAMLze0I5XH5ex7ju_T" version="22.0.2" type="device">
  <diagram id="C5RBs43oDa-KdzZeNtuy" name="Page-1">
    <mxGraphModel dx="1920" dy="1236" grid="1" gridSize="10" guides="1" tooltips="1" connect="1" arrows="1" fold="1" page="1" pageScale="1" pageWidth="827" pageHeight="1169" math="0" shadow="0">
      <root>
        <mxCell id="WIyWlLk6GJQsqaUBKTNV-0" />
        <mxCell id="WIyWlLk6GJQsqaUBKTNV-1" parent="WIyWlLk6GJQsqaUBKTNV-0" />
        <mxCell id="PqSQapPYjTBKL_nshrTY-35" style="edgeStyle=orthogonalEdgeStyle;rounded=0;orthogonalLoop=1;jettySize=auto;html=1;exitX=0.5;exitY=1;exitDx=0;exitDy=0;" edge="1" parent="WIyWlLk6GJQsqaUBKTNV-1" source="PqSQapPYjTBKL_nshrTY-0" target="PqSQapPYjTBKL_nshrTY-4">
          <mxGeometry relative="1" as="geometry" />
        </mxCell>
        <mxCell id="PqSQapPYjTBKL_nshrTY-0" value="Aplikasi Penjadwalan &amp;amp; Manajement Fasilitas Kampus" style="ellipse;whiteSpace=wrap;html=1;" vertex="1" parent="WIyWlLk6GJQsqaUBKTNV-1">
          <mxGeometry x="640" y="120" width="150" height="90" as="geometry" />
        </mxCell>
        <mxCell id="PqSQapPYjTBKL_nshrTY-4" value="Tujuan" style="swimlane;fontStyle=0;childLayout=stackLayout;horizontal=1;startSize=30;horizontalStack=0;resizeParent=1;resizeParentMax=0;resizeLast=0;collapsible=1;marginBottom=0;whiteSpace=wrap;html=1;" vertex="1" parent="WIyWlLk6GJQsqaUBKTNV-1">
          <mxGeometry x="565" y="320" width="300" height="290" as="geometry" />
        </mxCell>
        <mxCell id="PqSQapPYjTBKL_nshrTY-5" value="- Mempermudah Peminjaman Jadwal Ruangan &amp;amp; Fasilitas Kampus." style="text;strokeColor=none;fillColor=none;align=left;verticalAlign=middle;spacingLeft=4;spacingRight=4;overflow=hidden;points=[[0,0.5],[1,0.5]];portConstraint=eastwest;rotatable=0;whiteSpace=wrap;html=1;" vertex="1" parent="PqSQapPYjTBKL_nshrTY-4">
          <mxGeometry y="30" width="300" height="30" as="geometry" />
        </mxCell>
        <mxCell id="PqSQapPYjTBKL_nshrTY-6" value="- Memudahkan Acc Kegiatan secara Online." style="text;strokeColor=none;fillColor=none;align=left;verticalAlign=middle;spacingLeft=4;spacingRight=4;overflow=hidden;points=[[0,0.5],[1,0.5]];portConstraint=eastwest;rotatable=0;whiteSpace=wrap;html=1;" vertex="1" parent="PqSQapPYjTBKL_nshrTY-4">
          <mxGeometry y="60" width="300" height="30" as="geometry" />
        </mxCell>
        <mxCell id="PqSQapPYjTBKL_nshrTY-7" value="- Menghindari Bentrok Jadwal Kegiatan." style="text;strokeColor=none;fillColor=none;align=left;verticalAlign=middle;spacingLeft=4;spacingRight=4;overflow=hidden;points=[[0,0.5],[1,0.5]];portConstraint=eastwest;rotatable=0;whiteSpace=wrap;html=1;" vertex="1" parent="PqSQapPYjTBKL_nshrTY-4">
          <mxGeometry y="90" width="300" height="20" as="geometry" />
        </mxCell>
        <mxCell id="PqSQapPYjTBKL_nshrTY-8" value="&lt;span style=&quot;color: rgb(240, 240, 240); font-family: Helvetica; font-size: 12px; font-style: normal; font-variant-ligatures: normal; font-variant-caps: normal; font-weight: 400; letter-spacing: normal; orphans: 2; text-align: left; text-indent: 0px; text-transform: none; widows: 2; word-spacing: 0px; -webkit-text-stroke-width: 0px; background-color: rgb(27, 29, 30); text-decoration-thickness: initial; text-decoration-style: initial; text-decoration-color: initial; float: none; display: inline !important;&quot;&gt;- Memudahkan dalam menghitung fasilitas yang digunakan.&lt;/span&gt;" style="text;whiteSpace=wrap;html=1;" vertex="1" parent="PqSQapPYjTBKL_nshrTY-4">
          <mxGeometry y="110" width="300" height="40" as="geometry" />
        </mxCell>
        <mxCell id="PqSQapPYjTBKL_nshrTY-9" value="&lt;span style=&quot;color: rgb(240, 240, 240); font-family: Helvetica; font-size: 12px; font-style: normal; font-variant-ligatures: normal; font-variant-caps: normal; font-weight: 400; letter-spacing: normal; orphans: 2; text-align: left; text-indent: 0px; text-transform: none; widows: 2; word-spacing: 0px; -webkit-text-stroke-width: 0px; background-color: rgb(27, 29, 30); text-decoration-thickness: initial; text-decoration-style: initial; text-decoration-color: initial; float: none; display: inline !important;&quot;&gt;- Dapat Membuat Laporan Bulanan &amp;amp; Tahunan dari Kegiatan yang ada.&lt;/span&gt;" style="text;whiteSpace=wrap;html=1;" vertex="1" parent="PqSQapPYjTBKL_nshrTY-4">
          <mxGeometry y="150" width="300" height="40" as="geometry" />
        </mxCell>
        <mxCell id="PqSQapPYjTBKL_nshrTY-10" value="&lt;span style=&quot;color: rgb(240, 240, 240); font-family: Helvetica; font-size: 12px; font-style: normal; font-variant-ligatures: normal; font-variant-caps: normal; font-weight: 400; letter-spacing: normal; orphans: 2; text-align: left; text-indent: 0px; text-transform: none; widows: 2; word-spacing: 0px; -webkit-text-stroke-width: 0px; background-color: rgb(27, 29, 30); text-decoration-thickness: initial; text-decoration-style: initial; text-decoration-color: initial; float: none; display: inline !important;&quot;&gt;- Dapat melakukan upload bukti kegiatan, surat menyurat dan komentar dari acara kegiatan.&lt;/span&gt;" style="text;whiteSpace=wrap;html=1;" vertex="1" parent="PqSQapPYjTBKL_nshrTY-4">
          <mxGeometry y="190" width="300" height="40" as="geometry" />
        </mxCell>
        <mxCell id="PqSQapPYjTBKL_nshrTY-11" value="&lt;span style=&quot;color: rgb(240, 240, 240); font-family: Helvetica; font-size: 12px; font-style: normal; font-variant-ligatures: normal; font-variant-caps: normal; font-weight: 400; letter-spacing: normal; orphans: 2; text-align: left; text-indent: 0px; text-transform: none; widows: 2; word-spacing: 0px; -webkit-text-stroke-width: 0px; background-color: rgb(27, 29, 30); text-decoration-thickness: initial; text-decoration-style: initial; text-decoration-color: initial; float: none; display: inline !important;&quot;&gt;- Data dari bukti kegiatas bisa menjadi API untuk web&lt;/span&gt;" style="text;whiteSpace=wrap;html=1;" vertex="1" parent="PqSQapPYjTBKL_nshrTY-4">
          <mxGeometry y="230" width="300" height="30" as="geometry" />
        </mxCell>
        <mxCell id="PqSQapPYjTBKL_nshrTY-12" value="- Dapat meningkatkan Media Promosi" style="text;whiteSpace=wrap;html=1;" vertex="1" parent="PqSQapPYjTBKL_nshrTY-4">
          <mxGeometry y="260" width="300" height="30" as="geometry" />
        </mxCell>
        <mxCell id="PqSQapPYjTBKL_nshrTY-26" style="edgeStyle=orthogonalEdgeStyle;rounded=0;orthogonalLoop=1;jettySize=auto;html=1;exitX=1;exitY=0.5;exitDx=0;exitDy=0;" edge="1" parent="WIyWlLk6GJQsqaUBKTNV-1" source="PqSQapPYjTBKL_nshrTY-13" target="PqSQapPYjTBKL_nshrTY-16">
          <mxGeometry relative="1" as="geometry" />
        </mxCell>
        <mxCell id="PqSQapPYjTBKL_nshrTY-13" value="Mengelola Fasilitas Kampus" style="ellipse;whiteSpace=wrap;html=1;" vertex="1" parent="WIyWlLk6GJQsqaUBKTNV-1">
          <mxGeometry x="905" y="70" width="120" height="80" as="geometry" />
        </mxCell>
        <mxCell id="PqSQapPYjTBKL_nshrTY-27" style="edgeStyle=orthogonalEdgeStyle;rounded=0;orthogonalLoop=1;jettySize=auto;html=1;exitX=1;exitY=0.5;exitDx=0;exitDy=0;entryX=0;entryY=0.5;entryDx=0;entryDy=0;" edge="1" parent="WIyWlLk6GJQsqaUBKTNV-1" source="PqSQapPYjTBKL_nshrTY-14" target="PqSQapPYjTBKL_nshrTY-16">
          <mxGeometry relative="1" as="geometry">
            <mxPoint x="1045" y="170" as="targetPoint" />
          </mxGeometry>
        </mxCell>
        <mxCell id="PqSQapPYjTBKL_nshrTY-14" value="Management Penjadwalan Kegiatan Kampus" style="ellipse;whiteSpace=wrap;html=1;" vertex="1" parent="WIyWlLk6GJQsqaUBKTNV-1">
          <mxGeometry x="905" y="190" width="120" height="80" as="geometry" />
        </mxCell>
        <mxCell id="PqSQapPYjTBKL_nshrTY-15" value="Website STMIK AMIK BANDUNG" style="ellipse;whiteSpace=wrap;html=1;" vertex="1" parent="WIyWlLk6GJQsqaUBKTNV-1">
          <mxGeometry x="1310" y="125" width="140" height="90" as="geometry" />
        </mxCell>
        <mxCell id="PqSQapPYjTBKL_nshrTY-28" style="edgeStyle=orthogonalEdgeStyle;rounded=0;orthogonalLoop=1;jettySize=auto;html=1;" edge="1" parent="WIyWlLk6GJQsqaUBKTNV-1" source="PqSQapPYjTBKL_nshrTY-16" target="PqSQapPYjTBKL_nshrTY-17">
          <mxGeometry relative="1" as="geometry" />
        </mxCell>
        <mxCell id="PqSQapPYjTBKL_nshrTY-29" style="edgeStyle=orthogonalEdgeStyle;rounded=0;orthogonalLoop=1;jettySize=auto;html=1;exitX=1;exitY=0.5;exitDx=0;exitDy=0;entryX=0;entryY=0.5;entryDx=0;entryDy=0;" edge="1" parent="WIyWlLk6GJQsqaUBKTNV-1" source="PqSQapPYjTBKL_nshrTY-16" target="PqSQapPYjTBKL_nshrTY-15">
          <mxGeometry relative="1" as="geometry" />
        </mxCell>
        <mxCell id="PqSQapPYjTBKL_nshrTY-16" value="Laporan Kegiatan" style="ellipse;whiteSpace=wrap;html=1;" vertex="1" parent="WIyWlLk6GJQsqaUBKTNV-1">
          <mxGeometry x="1110" y="130" width="120" height="80" as="geometry" />
        </mxCell>
        <mxCell id="PqSQapPYjTBKL_nshrTY-17" value="Hasil Laporan" style="swimlane;fontStyle=0;childLayout=stackLayout;horizontal=1;startSize=30;horizontalStack=0;resizeParent=1;resizeParentMax=0;resizeLast=0;collapsible=1;marginBottom=0;whiteSpace=wrap;html=1;" vertex="1" parent="WIyWlLk6GJQsqaUBKTNV-1">
          <mxGeometry x="1101" y="320" width="140" height="190" as="geometry" />
        </mxCell>
        <mxCell id="PqSQapPYjTBKL_nshrTY-18" value="- Dokumentasi Kegiatan" style="text;strokeColor=none;fillColor=none;align=left;verticalAlign=middle;spacingLeft=4;spacingRight=4;overflow=hidden;points=[[0,0.5],[1,0.5]];portConstraint=eastwest;rotatable=0;whiteSpace=wrap;html=1;" vertex="1" parent="PqSQapPYjTBKL_nshrTY-17">
          <mxGeometry y="30" width="140" height="30" as="geometry" />
        </mxCell>
        <mxCell id="PqSQapPYjTBKL_nshrTY-19" value="- Informasi Fasilitas yang digunakan" style="text;strokeColor=none;fillColor=none;align=left;verticalAlign=middle;spacingLeft=4;spacingRight=4;overflow=hidden;points=[[0,0.5],[1,0.5]];portConstraint=eastwest;rotatable=0;whiteSpace=wrap;html=1;" vertex="1" parent="PqSQapPYjTBKL_nshrTY-17">
          <mxGeometry y="60" width="140" height="30" as="geometry" />
        </mxCell>
        <mxCell id="PqSQapPYjTBKL_nshrTY-20" value="- Surat Penyuratan kegiatan acara" style="text;strokeColor=none;fillColor=none;align=left;verticalAlign=middle;spacingLeft=4;spacingRight=4;overflow=hidden;points=[[0,0.5],[1,0.5]];portConstraint=eastwest;rotatable=0;whiteSpace=wrap;html=1;" vertex="1" parent="PqSQapPYjTBKL_nshrTY-17">
          <mxGeometry y="90" width="140" height="30" as="geometry" />
        </mxCell>
        <mxCell id="PqSQapPYjTBKL_nshrTY-21" value="- Laporan Kegiatan Acara" style="text;strokeColor=none;fillColor=none;align=left;verticalAlign=middle;spacingLeft=4;spacingRight=4;overflow=hidden;points=[[0,0.5],[1,0.5]];portConstraint=eastwest;rotatable=0;whiteSpace=wrap;html=1;" vertex="1" parent="PqSQapPYjTBKL_nshrTY-17">
          <mxGeometry y="120" width="140" height="30" as="geometry" />
        </mxCell>
        <mxCell id="PqSQapPYjTBKL_nshrTY-22" value="&lt;span style=&quot;color: rgb(240, 240, 240); font-family: Helvetica; font-size: 12px; font-style: normal; font-variant-ligatures: normal; font-variant-caps: normal; font-weight: 400; letter-spacing: normal; orphans: 2; text-align: left; text-indent: 0px; text-transform: none; widows: 2; word-spacing: 0px; -webkit-text-stroke-width: 0px; background-color: rgb(27, 29, 30); text-decoration-thickness: initial; text-decoration-style: initial; text-decoration-color: initial; float: none; display: inline !important;&quot;&gt;- API Laporan&lt;/span&gt;" style="text;whiteSpace=wrap;html=1;" vertex="1" parent="PqSQapPYjTBKL_nshrTY-17">
          <mxGeometry y="150" width="140" height="40" as="geometry" />
        </mxCell>
        <mxCell id="PqSQapPYjTBKL_nshrTY-24" value="" style="endArrow=classic;html=1;rounded=0;entryX=0;entryY=0.5;entryDx=0;entryDy=0;" edge="1" parent="WIyWlLk6GJQsqaUBKTNV-1" source="PqSQapPYjTBKL_nshrTY-0" target="PqSQapPYjTBKL_nshrTY-13">
          <mxGeometry width="50" height="50" relative="1" as="geometry">
            <mxPoint x="695" y="220" as="sourcePoint" />
            <mxPoint x="745" y="170" as="targetPoint" />
          </mxGeometry>
        </mxCell>
        <mxCell id="PqSQapPYjTBKL_nshrTY-25" value="" style="endArrow=classic;html=1;rounded=0;entryX=0;entryY=0.5;entryDx=0;entryDy=0;" edge="1" parent="WIyWlLk6GJQsqaUBKTNV-1" source="PqSQapPYjTBKL_nshrTY-0" target="PqSQapPYjTBKL_nshrTY-14">
          <mxGeometry width="50" height="50" relative="1" as="geometry">
            <mxPoint x="795" y="250" as="sourcePoint" />
            <mxPoint x="845" y="200" as="targetPoint" />
          </mxGeometry>
        </mxCell>
        <mxCell id="PqSQapPYjTBKL_nshrTY-30" value="&lt;h1&gt;API Laporan&lt;/h1&gt;&lt;p&gt;API data dari dokumentasi laporan kegiatan, bisa digunakan sebagai update halaman website stmik amik bandung, Agar kegiatan selalu berubah dan bertambah secara berkala, dan bisa memperlihatkan di website kampus bahwa organisasi yang aktif. Dan juga bisa sebagai media informasi Website STMIK AMIK BANDUNG, dan sebagai media promosi website informasi kampus juga.&lt;/p&gt;" style="text;html=1;strokeColor=none;fillColor=none;spacing=5;spacingTop=-20;whiteSpace=wrap;overflow=hidden;rounded=0;" vertex="1" parent="WIyWlLk6GJQsqaUBKTNV-1">
          <mxGeometry x="1280" y="360" width="390" height="240" as="geometry" />
        </mxCell>
        <mxCell id="PqSQapPYjTBKL_nshrTY-32" value="&lt;b&gt;&lt;i&gt;&lt;font style=&quot;font-size: 13px;&quot;&gt;Aplikasi Penjadwalan Kegiatan &amp;amp; Managemenet Fasilitas Kampus Untuk Civitas Akademika.&lt;/font&gt;&lt;/i&gt;&lt;/b&gt;" style="text;html=1;strokeColor=none;fillColor=none;align=center;verticalAlign=middle;whiteSpace=wrap;rounded=0;" vertex="1" parent="WIyWlLk6GJQsqaUBKTNV-1">
          <mxGeometry width="650" height="40" as="geometry" />
        </mxCell>
        <mxCell id="PqSQapPYjTBKL_nshrTY-34" value="&lt;h1 style=&quot;text-align: justify;&quot;&gt;Tujuan :&amp;nbsp;&lt;/h1&gt;&lt;p style=&quot;text-align: justify;&quot;&gt;- Membuat aplikasi berbasis website, supaya mahasiswa dapat melakukan pembookingan jadwal untuk kegiatan organisasi, atau kebutuhan lainnya.&lt;/p&gt;&lt;p style=&quot;text-align: justify;&quot;&gt;- Melakukan Management Pada Fasilitas Kampus.&lt;/p&gt;&lt;p style=&quot;text-align: justify;&quot;&gt;- Melakukan Peminjaman barang secara online, dengan mengirimkan lembar peminjaman.&lt;/p&gt;&lt;p style=&quot;text-align: justify;&quot;&gt;&lt;br&gt;&lt;/p&gt;&lt;p style=&quot;text-align: justify;&quot;&gt;Tujuan lainnya :&lt;/p&gt;&lt;p style=&quot;text-align: justify;&quot;&gt;- Agar mempermudah dalam peminjaman jadwal ruangan.&lt;/p&gt;&lt;p style=&quot;text-align: justify;&quot;&gt;- Memudahkan dalam acc proposal kegiatan.&lt;/p&gt;&lt;p style=&quot;text-align: justify;&quot;&gt;- Menghindari bentrok jadwal ketika ada kegiatan.&lt;/p&gt;&lt;p style=&quot;text-align: justify;&quot;&gt;- Memudahkan dalam menghitung fasilitas yang digunakan.&lt;/p&gt;&lt;p style=&quot;text-align: justify;&quot;&gt;- Membuat Laporan bulanan &amp;amp; tahunan dari kegiatan yang sudah menggunakan web penjadawalan kegiatan.&lt;/p&gt;&lt;p style=&quot;text-align: justify;&quot;&gt;- Memerlukan bukti dari kegiatan sebagai, keaktivan civitas dalam mengadakan event atau kegiatan di kampus.&lt;/p&gt;" style="text;html=1;strokeColor=none;fillColor=none;spacing=5;spacingTop=-20;whiteSpace=wrap;overflow=hidden;rounded=0;" vertex="1" parent="WIyWlLk6GJQsqaUBKTNV-1">
          <mxGeometry x="40" y="80" width="440" height="420" as="geometry" />
        </mxCell>
      </root>
    </mxGraphModel>
  </diagram>
</mxfile>
